<mxfile host="Electron" modified="2023-10-13T12:23:30.073Z" agent="Mozilla/5.0 (Windows NT 10.0; Win64; x64) AppleWebKit/537.36 (KHTML, like Gecko) draw.io/21.2.8 Chrome/112.0.5615.165 Electron/24.2.0 Safari/537.36" etag="BKOAfL5-sJX999f5wtyL" version="21.2.8" type="device">
  <diagram name="Page-1" id="COWu3WblOMtZpzfT4vSt">
    <mxGraphModel dx="1820" dy="693" grid="1" gridSize="10" guides="1" tooltips="1" connect="1" arrows="1" fold="1" page="1" pageScale="1" pageWidth="827" pageHeight="1169" math="0" shadow="0">
      <root>
        <mxCell id="0" />
        <mxCell id="1" parent="0" />
        <mxCell id="MVy8PiNjy7tizsFjgr7v-1" value="" style="rounded=1;whiteSpace=wrap;html=1;sketch=1;curveFitting=1;jiggle=2;dashed=1;strokeWidth=2;" parent="1" vertex="1">
          <mxGeometry x="40" y="80" width="200" height="240" as="geometry" />
        </mxCell>
        <mxCell id="MVy8PiNjy7tizsFjgr7v-2" value="&lt;b&gt;&lt;font style=&quot;font-size: 14px;&quot; face=&quot;Times New Roman&quot;&gt;Client&lt;/font&gt;&lt;/b&gt;" style="text;html=1;align=center;verticalAlign=middle;resizable=0;points=[];autosize=1;strokeColor=none;fillColor=none;" parent="1" vertex="1">
          <mxGeometry x="105" y="90" width="60" height="30" as="geometry" />
        </mxCell>
        <mxCell id="MVy8PiNjy7tizsFjgr7v-19" style="edgeStyle=orthogonalEdgeStyle;rounded=0;orthogonalLoop=1;jettySize=auto;html=1;exitX=0.25;exitY=1;exitDx=0;exitDy=0;entryX=0;entryY=0.75;entryDx=0;entryDy=0;strokeWidth=2;dashed=1;" parent="1" source="MVy8PiNjy7tizsFjgr7v-3" target="MVy8PiNjy7tizsFjgr7v-4" edge="1">
          <mxGeometry relative="1" as="geometry" />
        </mxCell>
        <mxCell id="MVy8PiNjy7tizsFjgr7v-3" value="&lt;b&gt;&lt;font style=&quot;font-size: 14px;&quot; face=&quot;Times New Roman&quot;&gt;HDFS &lt;br&gt;Client&lt;/font&gt;&lt;/b&gt;" style="rounded=1;whiteSpace=wrap;html=1;sketch=1;curveFitting=1;jiggle=2;strokeWidth=2;fillColor=#f5f5f5;strokeColor=#666666;fontColor=#333333;" parent="1" vertex="1">
          <mxGeometry x="55" y="150" width="65" height="40" as="geometry" />
        </mxCell>
        <mxCell id="MVy8PiNjy7tizsFjgr7v-4" value="&lt;b style=&quot;font-size: 14px;&quot;&gt;&lt;font style=&quot;font-size: 14px;&quot; face=&quot;Times New Roman&quot;&gt;Distributed&lt;br&gt;FileSystem&lt;/font&gt;&lt;/b&gt;" style="rounded=1;whiteSpace=wrap;html=1;strokeWidth=2;dashed=1;fillColor=#f5f5f5;fontColor=#333333;strokeColor=#666666;sketch=1;curveFitting=1;jiggle=2;" parent="1" vertex="1">
          <mxGeometry x="140" y="140" width="80" height="100" as="geometry" />
        </mxCell>
        <mxCell id="MVy8PiNjy7tizsFjgr7v-51" style="edgeStyle=orthogonalEdgeStyle;rounded=0;orthogonalLoop=1;jettySize=auto;html=1;exitX=0.878;exitY=0.983;exitDx=0;exitDy=0;entryX=0;entryY=0.5;entryDx=0;entryDy=0;dashed=1;strokeWidth=2;exitPerimeter=0;" parent="1" source="MVy8PiNjy7tizsFjgr7v-6" target="MVy8PiNjy7tizsFjgr7v-36" edge="1">
          <mxGeometry relative="1" as="geometry">
            <Array as="points">
              <mxPoint x="200" y="299" />
              <mxPoint x="200" y="460" />
            </Array>
          </mxGeometry>
        </mxCell>
        <mxCell id="MVy8PiNjy7tizsFjgr7v-6" value="&lt;font face=&quot;Times New Roman&quot;&gt;&lt;span style=&quot;font-size: 14px;&quot;&gt;&lt;b&gt;FSDataInputStream&lt;/b&gt;&lt;/span&gt;&lt;/font&gt;" style="rounded=1;whiteSpace=wrap;html=1;sketch=1;curveFitting=1;jiggle=2;strokeWidth=2;fillColor=#f5f5f5;strokeColor=#666666;fontColor=#333333;dashed=1;" parent="1" vertex="1">
          <mxGeometry x="62.5" y="260" width="155" height="40" as="geometry" />
        </mxCell>
        <mxCell id="MVy8PiNjy7tizsFjgr7v-7" value="" style="rounded=1;whiteSpace=wrap;html=1;sketch=1;curveFitting=1;jiggle=2;dashed=1;strokeWidth=2;" parent="1" vertex="1">
          <mxGeometry x="480" y="80" width="200" height="240" as="geometry" />
        </mxCell>
        <mxCell id="MVy8PiNjy7tizsFjgr7v-8" value="&lt;font face=&quot;Times New Roman&quot;&gt;&lt;span style=&quot;font-size: 14px;&quot;&gt;&lt;b&gt;NN&lt;/b&gt;&lt;/span&gt;&lt;/font&gt;" style="text;html=1;align=center;verticalAlign=middle;resizable=0;points=[];autosize=1;strokeColor=none;fillColor=none;" parent="1" vertex="1">
          <mxGeometry x="560" y="90" width="40" height="30" as="geometry" />
        </mxCell>
        <mxCell id="MVy8PiNjy7tizsFjgr7v-9" value="" style="endArrow=classic;html=1;rounded=0;exitX=1.008;exitY=0.164;exitDx=0;exitDy=0;exitPerimeter=0;entryX=0.012;entryY=0.161;entryDx=0;entryDy=0;entryPerimeter=0;strokeWidth=2;dashed=1;" parent="1" edge="1">
          <mxGeometry width="50" height="50" relative="1" as="geometry">
            <mxPoint x="241.5999999999999" y="141.36" as="sourcePoint" />
            <mxPoint x="482.4000000000001" y="140.64" as="targetPoint" />
          </mxGeometry>
        </mxCell>
        <mxCell id="MVy8PiNjy7tizsFjgr7v-10" value="&lt;font style=&quot;font-size: 14px;&quot;&gt;1. 请求下载文件&lt;/font&gt;" style="text;html=1;align=center;verticalAlign=middle;resizable=0;points=[];autosize=1;strokeColor=none;fillColor=none;" parent="1" vertex="1">
          <mxGeometry x="290" y="112" width="120" height="30" as="geometry" />
        </mxCell>
        <mxCell id="MVy8PiNjy7tizsFjgr7v-14" value="&lt;b&gt;&lt;font face=&quot;Times New Roman&quot;&gt;open&lt;/font&gt;&lt;/b&gt;" style="text;html=1;align=center;verticalAlign=middle;resizable=0;points=[];autosize=1;strokeColor=none;fillColor=none;strokeWidth=2;dashed=1;" parent="1" vertex="1">
          <mxGeometry x="77" y="189" width="50" height="30" as="geometry" />
        </mxCell>
        <mxCell id="MVy8PiNjy7tizsFjgr7v-21" value="" style="endArrow=classic;html=1;rounded=0;dashed=1;" parent="1" edge="1">
          <mxGeometry width="50" height="50" relative="1" as="geometry">
            <mxPoint x="70" y="150" as="sourcePoint" />
            <mxPoint x="10" y="90" as="targetPoint" />
          </mxGeometry>
        </mxCell>
        <mxCell id="MVy8PiNjy7tizsFjgr7v-22" value="&lt;b&gt;&lt;font color=&quot;#ff0000&quot; face=&quot;Times New Roman&quot;&gt;3.1&lt;/font&gt;&lt;/b&gt;" style="text;html=1;align=center;verticalAlign=middle;resizable=0;points=[];autosize=1;strokeColor=none;fillColor=none;" parent="1" vertex="1">
          <mxGeometry x="-10" y="60" width="40" height="30" as="geometry" />
        </mxCell>
        <mxCell id="MVy8PiNjy7tizsFjgr7v-23" value="&lt;font style=&quot;font-size: 14px;&quot;&gt;NN检查权限&lt;br&gt;检查目录是否存在&lt;br&gt;&lt;/font&gt;" style="text;html=1;align=center;verticalAlign=middle;resizable=0;points=[];autosize=1;strokeColor=none;fillColor=none;" parent="1" vertex="1">
          <mxGeometry x="510" y="139" width="140" height="50" as="geometry" />
        </mxCell>
        <mxCell id="MVy8PiNjy7tizsFjgr7v-25" value="" style="endArrow=classic;html=1;rounded=0;dashed=1;exitX=0.986;exitY=0.527;exitDx=0;exitDy=0;exitPerimeter=0;" parent="1" source="MVy8PiNjy7tizsFjgr7v-23" edge="1">
          <mxGeometry width="50" height="50" relative="1" as="geometry">
            <mxPoint x="430" y="310" as="sourcePoint" />
            <mxPoint x="690" y="153.4838799332963" as="targetPoint" />
          </mxGeometry>
        </mxCell>
        <mxCell id="MVy8PiNjy7tizsFjgr7v-26" value="" style="endArrow=none;html=1;rounded=0;exitX=1.008;exitY=0.164;exitDx=0;exitDy=0;exitPerimeter=0;entryX=0.012;entryY=0.161;entryDx=0;entryDy=0;entryPerimeter=0;strokeWidth=2;dashed=1;endFill=0;startArrow=classic;startFill=1;" parent="1" edge="1">
          <mxGeometry width="50" height="50" relative="1" as="geometry">
            <mxPoint x="240" y="182" as="sourcePoint" />
            <mxPoint x="480" y="182" as="targetPoint" />
          </mxGeometry>
        </mxCell>
        <mxCell id="MVy8PiNjy7tizsFjgr7v-27" value="&lt;font face=&quot;Times New Roman&quot;&gt;&lt;span style=&quot;font-size: 14px;&quot;&gt;2. 返回目标文件的元数据&lt;/span&gt;&lt;/font&gt;" style="text;html=1;align=center;verticalAlign=middle;resizable=0;points=[];autosize=1;strokeColor=none;fillColor=none;" parent="1" vertex="1">
          <mxGeometry x="260" y="152" width="180" height="30" as="geometry" />
        </mxCell>
        <mxCell id="MVy8PiNjy7tizsFjgr7v-35" value="&lt;font face=&quot;Times New Roman&quot;&gt;&lt;span style=&quot;font-size: 14px;&quot;&gt;&lt;b&gt;meta&lt;/b&gt;&lt;/span&gt;&lt;/font&gt;" style="rounded=1;whiteSpace=wrap;html=1;sketch=1;curveFitting=1;jiggle=2;strokeWidth=2;fillColor=#f5f5f5;strokeColor=#666666;fontColor=#333333;dashed=1;" parent="1" vertex="1">
          <mxGeometry x="520" y="220" width="120" height="40" as="geometry" />
        </mxCell>
        <mxCell id="mNqZlqMHHuhQyU_FbLUz-1" style="edgeStyle=orthogonalEdgeStyle;rounded=0;orthogonalLoop=1;jettySize=auto;html=1;exitX=0;exitY=0.75;exitDx=0;exitDy=0;entryX=0.5;entryY=1;entryDx=0;entryDy=0;strokeWidth=2;dashed=1;" parent="1" source="MVy8PiNjy7tizsFjgr7v-36" target="MVy8PiNjy7tizsFjgr7v-6" edge="1">
          <mxGeometry relative="1" as="geometry" />
        </mxCell>
        <mxCell id="MVy8PiNjy7tizsFjgr7v-36" value="" style="rounded=1;whiteSpace=wrap;html=1;sketch=1;curveFitting=1;jiggle=2;dashed=1;strokeWidth=2;" parent="1" vertex="1">
          <mxGeometry x="304" y="380" width="110" height="160" as="geometry" />
        </mxCell>
        <mxCell id="MVy8PiNjy7tizsFjgr7v-37" value="&lt;font face=&quot;Times New Roman&quot;&gt;&lt;span style=&quot;font-size: 14px;&quot;&gt;&lt;b&gt;DN1&lt;/b&gt;&lt;/span&gt;&lt;/font&gt;" style="text;html=1;align=center;verticalAlign=middle;resizable=0;points=[];autosize=1;strokeColor=none;fillColor=none;" parent="1" vertex="1">
          <mxGeometry x="334" y="390" width="50" height="30" as="geometry" />
        </mxCell>
        <mxCell id="MVy8PiNjy7tizsFjgr7v-39" value="&lt;font face=&quot;Times New Roman&quot;&gt;&lt;span style=&quot;font-size: 14px;&quot;&gt;&lt;b&gt;其他DN类似...&lt;/b&gt;&lt;/span&gt;&lt;/font&gt;" style="text;html=1;align=center;verticalAlign=middle;resizable=0;points=[];autosize=1;strokeColor=none;fillColor=none;" parent="1" vertex="1">
          <mxGeometry x="450" y="445" width="110" height="30" as="geometry" />
        </mxCell>
        <mxCell id="MVy8PiNjy7tizsFjgr7v-41" value="&lt;font face=&quot;Times New Roman&quot; style=&quot;font-size: 14px;&quot;&gt;3. 请求读数据&lt;br&gt;&lt;/font&gt;" style="text;html=1;align=center;verticalAlign=middle;resizable=0;points=[];autosize=1;strokeColor=none;fillColor=none;" parent="1" vertex="1">
          <mxGeometry x="194" y="430" width="110" height="30" as="geometry" />
        </mxCell>
        <mxCell id="MVy8PiNjy7tizsFjgr7v-46" value="&lt;font face=&quot;Times New Roman&quot;&gt;&lt;b&gt;packet&lt;/b&gt;&lt;/font&gt;" style="ellipse;whiteSpace=wrap;html=1;aspect=fixed;dashed=1;strokeWidth=2;" parent="1" vertex="1">
          <mxGeometry x="334" y="460" width="50" height="50" as="geometry" />
        </mxCell>
        <mxCell id="mNqZlqMHHuhQyU_FbLUz-2" value="&lt;font face=&quot;Times New Roman&quot; style=&quot;font-size: 14px;&quot;&gt;4. 传输数据&lt;br&gt;&lt;/font&gt;" style="text;html=1;align=center;verticalAlign=middle;resizable=0;points=[];autosize=1;strokeColor=none;fillColor=none;" parent="1" vertex="1">
          <mxGeometry x="140" y="470" width="90" height="30" as="geometry" />
        </mxCell>
        <mxCell id="BoU7ie6nYOInFwq582Ts-1" value="&lt;b&gt;&lt;font color=&quot;#ff0000&quot; face=&quot;Times New Roman&quot;&gt;3.3-3.4&lt;/font&gt;&lt;/b&gt;" style="text;html=1;align=center;verticalAlign=middle;resizable=0;points=[];autosize=1;strokeColor=none;fillColor=none;" vertex="1" parent="1">
          <mxGeometry x="680" y="122" width="60" height="30" as="geometry" />
        </mxCell>
        <mxCell id="BoU7ie6nYOInFwq582Ts-2" value="&lt;b&gt;&lt;font color=&quot;#ff0000&quot; face=&quot;Times New Roman&quot;&gt;3.5&lt;/font&gt;&lt;/b&gt;" style="text;html=1;align=center;verticalAlign=middle;resizable=0;points=[];autosize=1;strokeColor=none;fillColor=none;" vertex="1" parent="1">
          <mxGeometry x="420" y="152" width="40" height="30" as="geometry" />
        </mxCell>
        <mxCell id="BoU7ie6nYOInFwq582Ts-3" value="&lt;b&gt;&lt;font color=&quot;#ff0000&quot; face=&quot;Times New Roman&quot;&gt;3.6-3.7&lt;/font&gt;&lt;/b&gt;" style="text;html=1;align=center;verticalAlign=middle;resizable=0;points=[];autosize=1;strokeColor=none;fillColor=none;" vertex="1" parent="1">
          <mxGeometry x="217.5" y="410" width="60" height="30" as="geometry" />
        </mxCell>
        <mxCell id="BoU7ie6nYOInFwq582Ts-4" value="&lt;b style=&quot;border-color: var(--border-color); color: rgb(0, 0, 0); font-family: Helvetica; font-size: 12px; font-style: normal; font-variant-ligatures: normal; font-variant-caps: normal; letter-spacing: normal; orphans: 2; text-align: center; text-indent: 0px; text-transform: none; widows: 2; word-spacing: 0px; -webkit-text-stroke-width: 0px; background-color: rgb(251, 251, 251); text-decoration-thickness: initial; text-decoration-style: initial; text-decoration-color: initial;&quot;&gt;&lt;font style=&quot;border-color: var(--border-color);&quot; color=&quot;#ff0000&quot; face=&quot;Times New Roman&quot;&gt;3.8-3.10&lt;/font&gt;&lt;/b&gt;" style="text;whiteSpace=wrap;html=1;" vertex="1" parent="1">
          <mxGeometry x="224" y="470" width="70" height="40" as="geometry" />
        </mxCell>
      </root>
    </mxGraphModel>
  </diagram>
</mxfile>
